<?xml version="1.0" encoding="UTF-8" standalone="no"?>
<!-- Created with Inkscape (http://www.inkscape.org/) -->

<svg
   width="409.2084"
   height="411.271"
   viewBox="0 0 409.2084 411.27099"
   version="1.1"
   id="svg8"
   inkscape:version="1.3.2 (091e20ef0f, 2023-11-25)"
   sodipodi:docname="logitech-g705.svg"
   xml:space="preserve"
   xmlns:inkscape="http://www.inkscape.org/namespaces/inkscape"
   xmlns:sodipodi="http://sodipodi.sourceforge.net/DTD/sodipodi-0.dtd"
   xmlns="http://www.w3.org/2000/svg"
   xmlns:svg="http://www.w3.org/2000/svg"
   xmlns:rdf="http://www.w3.org/1999/02/22-rdf-syntax-ns#"
   xmlns:cc="http://creativecommons.org/ns#"
   xmlns:dc="http://purl.org/dc/elements/1.1/"><defs
     id="defs2" /><sodipodi:namedview
     id="base"
     pagecolor="#ffffff"
     bordercolor="#666666"
     borderopacity="1.0"
     inkscape:pageopacity="0.0"
     inkscape:pageshadow="2"
     inkscape:zoom="0.99999996"
     inkscape:cx="228.00001"
     inkscape:cy="220.50001"
     inkscape:document-units="px"
     inkscape:current-layer="led0-path"
     inkscape:document-rotation="0"
     showgrid="false"
     units="px"
     borderlayer="true"
     inkscape:showpageshadow="false"
     inkscape:pagecheckerboard="false"
     showguides="true"
     inkscape:window-width="1280"
     inkscape:window-height="731"
     inkscape:window-x="0"
     inkscape:window-y="0"
     inkscape:window-maximized="1"
     fit-margin-top="20"
     fit-margin-left="20"
     fit-margin-bottom="20"
     fit-margin-right="0"
     inkscape:deskcolor="#505050"><inkscape:grid
       type="xygrid"
       id="grid956"
       originx="-68.791593"
       originy="1.2767161"
       spacingy="1"
       spacingx="1"
       units="px"
       visible="false" /></sodipodi:namedview><metadata
     id="metadata5"><rdf:RDF><cc:Work
         rdf:about=""><dc:format>image/svg+xml</dc:format><dc:type
           rdf:resource="http://purl.org/dc/dcmitype/StillImage" /></cc:Work></rdf:RDF></metadata><g
     inkscape:groupmode="layer"
     id="Device"
     inkscape:label="Device"><path
       style="opacity:1;fill:#e5e5e5;fill-opacity:1;stroke:#cccfc9;stroke-opacity:1"
       d="M 122.4629,372.37111 C 78.16016,372.31057 20.363282,337.13283 20.244142,283.66408 c -0.119141,-53.46875 22.154297,-98.6836 22.154297,-98.6836 0,0 173.909881,-28.03513 173.853521,25.29688 -0.10941,103.53711 -26.93164,162.17579 -93.78906,162.09375 z"
       id="path2"
       sodipodi:nodetypes="cscsc"
       inkscape:label="bottom" /><path
       style="fill:#e2e2e2;stroke:#bfc2bb;stroke-width:2;stroke-dasharray:none;stroke-opacity:1;fill-opacity:1"
       d="m 31.825118,217.55212 c -2.089239,0.22183 -4.192708,1.84846 -4.038883,4.18135 0.153825,2.3329 1.260032,18.95609 1.555599,22.29691 0.295569,3.34084 4.840825,3.50545 4.840825,3.50545 z"
       id="button3"
       sodipodi:nodetypes="csscc"
       inkscape:label="button back" /><path
       style="opacity:1;fill:#e2e2e2;fill-opacity:1;stroke:#bfc2bb;stroke-width:2;stroke-dasharray:none;stroke-opacity:1"
       d="m 33.04229,179.13142 c -2.099914,-0.067 -4.349657,1.37383 -4.517457,3.70576 -0.1678,2.33193 -1.353447,18.94964 -1.519175,22.29942 -0.165728,3.34978 4.425002,4.37245 4.425002,4.37245 z"
       id="button4"
       sodipodi:nodetypes="csscc"
       inkscape:label="button forward" /><path
       style="opacity:1;fill:#d0d0d0;fill-opacity:1"
       d="M 123.27153,64.017424 C 75.996664,64.202387 54.900393,93.076176 48.419924,109.58985 38.259635,135.48052 30.74124,167.5901 30.304689,209.09962 c -0.436551,41.50952 11.686185,86.58736 27.634767,112.90235 15.948582,26.31499 39.016602,42.08887 63.478514,42.33008 28.47554,0.28079 51.27292,-11.49618 69.35353,-40.06788 17.91504,-28.31006 26.65067,-70.91979 26.28125,-116.28368 -0.33096,-40.64026 -6.8501,-68.27792 -12.7469,-88.51561 -6.1851,-21.227173 -23.46195,-55.672709 -81.03432,-55.447456 z"
       id="path1"
       sodipodi:nodetypes="sszzsssss"
       inkscape:label="body" /><path
       id="led0"
       style="opacity:1;fill:#cccccc;fill-opacity:1"
       inkscape:label="leds"
       d="M 213.6875 239.58789 C 212.34312 254.3136 202.91293 294.79245 189.51758 317.26953 C 175.06041 341.52831 150.20068 354.57525 126.56641 354.375 C 102.93214 354.17475 75.744063 338.89764 60.662109 315.07227 C 46.746503 293.0894 37.71816 255.61085 35.025391 242.33594 C 38.706972 311.93003 76.182133 366.28359 126.59375 365.87891 C 178.34901 365.46343 212.77056 304.72212 213.6875 239.58789 z " /><path
       style="fill:#e9e9e7;fill-opacity:1;stroke:#bfc2bb;stroke-width:2;stroke-dasharray:none;stroke-opacity:1"
       d="m 96.388127,188.32411 c 7.898853,-2.98672 12.739533,-9.2909 12.757103,-16.79778 0.0235,-10.03945 -1.05538,-49.59078 -0.9753,-61.8232 0.0801,-12.232423 13.34179,-12.78711 13.34179,-12.78711 0,0 -0.21569,-35.121462 -0.36718,-35.273439 -31.558599,-0.04102 -61.40784,19.758529 -72.347663,44.714849 -11.07242,25.2588 -14.512791,69.89701 -15.665135,80.72514 -1.152344,10.82812 7.758885,16.40767 17.237401,14.31002 9.478516,-2.09766 46.018984,-13.06848 46.018984,-13.06848 z"
       id="button0"
       sodipodi:nodetypes="cssccsssc"
       inkscape:label="left button" /><path
       style="fill:#e9e9e7;fill-opacity:1;stroke:#bfc2bb;stroke-width:2;stroke-dasharray:none;stroke-opacity:1"
       d="m 150.74187,188.11365 c -7.89885,-2.98672 -12.73953,-9.2909 -12.7571,-16.79778 -0.0235,-10.03945 1.05538,-49.59078 0.9753,-61.8232 -0.0801,-12.232421 -13.34179,-12.787108 -13.34179,-12.787108 0,0 -0.25404,-35.275759 -0.1753,-35.315675 31.5586,-0.04102 61.95033,19.800765 72.89015,44.757083 11.07242,25.2588 14.51279,69.89701 15.66513,80.72514 1.15235,10.82812 -7.75888,16.40767 -17.23739,14.31002 -9.47852,-2.09766 -46.019,-13.06848 -46.019,-13.06848 z"
       id="button1"
       sodipodi:nodetypes="cssccsssc"
       inkscape:label="right button" /><path
       style="fill:#e9e9e7;fill-opacity:1;stroke:#bfc2bb;stroke-width:2;stroke-dasharray:none;stroke-opacity:1"
       d="m 111.80852,122.68701 c 0.29193,14.81894 -0.56635,18.2757 1.51955,20.37414 2.76785,2.78449 6.73813,3.23474 11.31485,3.17293 4.57672,-0.0618 7.45922,-0.7469 9.78983,-4.22701 1.35259,-2.01971 0.70081,-15.90012 0.78164,-19.9548 0.0808,-4.05467 1.00426,-14.05539 -2.02971,-17.58965 -2.21586,-2.58122 -4.94829,-4.33399 -9.37095,-4.19991 -4.42267,0.13408 -7.07265,0.69137 -9.76202,4.27908 -2.5176,3.35857 -2.41911,10.40768 -2.24319,18.14522 z"
       id="button2"
       sodipodi:nodetypes="csssssssc"
       inkscape:label="scrolling wheel" /><rect
       style="fill:#e9e9e7;fill-opacity:1;stroke:#bfc2bb;stroke-width:2;stroke-dasharray:none;stroke-opacity:1"
       id="button5"
       width="12.311043"
       height="24.594238"
       x="117.5205"
       y="157.66846"
       ry="5.9628911"
       inkscape:label="dpi button" /><path
       style="display:inline;fill:#e9e9e7;fill-opacity:1;stroke:#bfc2bb;stroke-width:2;stroke-dasharray:none;stroke-opacity:1"
       d="m 114.38894,198.47641 c -12.74449,2.07936 -54.772792,14.80248 -64.130639,17.84003 -11.673316,3.78915 -17.92379,11.4679 -15.857681,22.89781 1.739674,9.62404 11.180457,52.03275 26.262426,75.85815 15.081969,23.8254 42.268484,39.10327 65.902774,39.30352 23.6343,0.20025 48.49481,-12.84753 62.95199,-37.10633 14.45718,-24.25881 24.31525,-69.54459 24.35165,-80.72524 0.0364,-11.18065 -3.0931,-15.72683 -13.51579,-21.21915 -6.77307,-3.56913 -42.3551,-14.09263 -60.40804,-16.71823 -9.72386,-1.41423 -17.54192,-1.43823 -25.55669,-0.13056 z"
       id="path5"
       sodipodi:nodetypes="ssszssssss"
       inkscape:label="plate" /><path
       style="color:#000000;display:inline;overflow:visible;vector-effect:none;fill:none;fill-opacity:1;stroke:#bebebe;stroke-width:8.02838;stroke-linecap:square;stroke-linejoin:bevel;stroke-miterlimit:4;stroke-dasharray:none;stroke-opacity:1"
       id="logo"
       sodipodi:type="arc"
       sodipodi:cx="-294.64468"
       sodipodi:cy="126.73272"
       sodipodi:rx="16.005981"
       sodipodi:ry="16.005981"
       sodipodi:start="0.78539816"
       sodipodi:end="5.4977871"
       sodipodi:arc-type="arc"
       d="m -283.32675,138.05066 a 16.005981,16.005981 0 0 1 -22.63587,0 16.005981,16.005981 0 0 1 0,-22.63588 16.005981,16.005981 0 0 1 22.63587,0"
       sodipodi:open="true"
       transform="rotate(-90)"
       inkscape:label="logo" /></g><g
     inkscape:groupmode="layer"
     id="Buttons"
     inkscape:label="Buttons"
     style="display:inline"
     transform="translate(-73.658785,33.0958)"><g
       id="button1-path"
       inkscape:label="button1"
       transform="translate(-0.14363107,6.8280002)"><path
         sodipodi:nodetypes="cc"
         style="color:#000000;overflow:visible;opacity:1;vector-effect:none;fill:none;fill-opacity:1;stroke:#888a85;stroke-width:1;stroke-linecap:square;stroke-linejoin:miter;stroke-miterlimit:4;stroke-dasharray:none;stroke-dashoffset:0;stroke-opacity:1;marker:none;marker-start:none;marker-mid:none;marker-end:none;paint-order:normal"
         d="M 242.94764,50.505764 H 477"
         id="path958"
         inkscape:connector-curvature="0" /><rect
         style="color:#000000;overflow:visible;opacity:1;vector-effect:none;fill:#2e3436;fill-opacity:1;stroke:none;stroke-width:2;stroke-linecap:square;stroke-linejoin:miter;stroke-miterlimit:4;stroke-dasharray:none;stroke-dashoffset:0;stroke-opacity:1;marker:none;marker-start:none;marker-mid:none;marker-end:none;paint-order:normal"
         id="rect968"
         width="6.999999"
         height="6.999999"
         x="237"
         y="47.005764" /><rect
         inkscape:label="#rect867"
         style="color:#000000;text-align:start;overflow:visible;vector-effect:none;fill:#888a85;fill-opacity:1;stroke:none;stroke-linecap:round"
         id="button1-leader"
         width="1"
         height="1"
         x="477"
         y="50.005764" /></g><g
       id="button0-path"
       inkscape:label="button0"
       transform="translate(0,-116)"><path
         sodipodi:nodetypes="ccc"
         inkscape:connector-curvature="0"
         id="path960"
         d="m 477,130.50576 -284.64785,0 -29.69469,42.42969"
         style="color:#000000;overflow:visible;opacity:1;vector-effect:none;fill:none;fill-opacity:1;stroke:#888a85;stroke-width:1;stroke-linecap:square;stroke-linejoin:miter;stroke-miterlimit:4;stroke-dasharray:none;stroke-dashoffset:0;stroke-opacity:1;marker:none;marker-start:none;marker-mid:none;marker-end:none;paint-order:normal" /><rect
         y="169.44424"
         x="158.99805"
         height="6.999999"
         width="6.999999"
         id="rect970"
         style="color:#000000;overflow:visible;opacity:1;vector-effect:none;fill:#2e3436;fill-opacity:1;stroke:none;stroke-width:2;stroke-linecap:square;stroke-linejoin:miter;stroke-miterlimit:4;stroke-dasharray:none;stroke-dashoffset:0;stroke-opacity:1;marker:none;marker-start:none;marker-mid:none;marker-end:none;paint-order:normal" /><rect
         inkscape:label="#rect871"
         style="color:#000000;text-align:start;overflow:visible;vector-effect:none;fill:#888a85;fill-opacity:1;stroke:none;stroke-linecap:round"
         id="button0-leader"
         width="1"
         height="1"
         x="477"
         y="130.00577" /></g><g
       id="button4-path"
       inkscape:label="button4"
       transform="translate(0,-34)"><path
         sodipodi:nodetypes="ccc"
         inkscape:connector-curvature="0"
         id="path964"
         d="M 102.71703,194.18844 116.19216,210.44326 477,210.50576"
         style="color:#000000;overflow:visible;opacity:1;vector-effect:none;fill:none;fill-opacity:1;stroke:#888a85;stroke-width:1;stroke-linecap:square;stroke-linejoin:miter;stroke-miterlimit:4;stroke-dasharray:none;stroke-dashoffset:0;stroke-opacity:1;marker:none;marker-start:none;marker-mid:none;marker-end:none;paint-order:normal" /><rect
         inkscape:label="#rect875"
         style="color:#000000;text-align:start;overflow:visible;vector-effect:none;fill:#888a85;fill-opacity:1;stroke:none;stroke-linecap:round"
         id="button4-leader"
         width="1"
         height="1"
         x="477"
         y="210.00577" /><rect
         y="191.27885"
         x="99.334167"
         height="6.999999"
         width="6.999999"
         id="rect974"
         style="color:#000000;overflow:visible;opacity:1;vector-effect:none;fill:#2e3436;fill-opacity:1;stroke:none;stroke-width:2;stroke-linecap:square;stroke-linejoin:miter;stroke-miterlimit:4;stroke-dasharray:none;stroke-dashoffset:0;stroke-opacity:1;marker:none;marker-start:none;marker-mid:none;marker-end:none;paint-order:normal" /></g><g
       id="button2-path"
       inkscape:label="button2"
       transform="translate(0,6)"><rect
         inkscape:label="#rect869"
         y="90.00576"
         x="477"
         height="1"
         width="1"
         id="button2-leader"
         style="color:#000000;text-align:start;overflow:visible;vector-effect:none;fill:#888a85;fill-opacity:1;stroke:none;stroke-linecap:round" /><path
         style="color:#000000;overflow:visible;opacity:1;vector-effect:none;fill:none;fill-opacity:1;stroke:#888a85;stroke-width:1;stroke-linecap:square;stroke-linejoin:miter;stroke-miterlimit:4;stroke-dasharray:none;stroke-dashoffset:0;stroke-opacity:1;marker:none;marker-start:none;marker-mid:none;marker-end:none;paint-order:normal"
         d="M 197.96422,90.50576 H 477"
         id="path908"
         inkscape:connector-curvature="0"
         sodipodi:nodetypes="cc" /><rect
         style="color:#000000;overflow:visible;opacity:1;vector-effect:none;fill:#2e3436;fill-opacity:1;stroke:none;stroke-width:2;stroke-linecap:square;stroke-linejoin:miter;stroke-miterlimit:4;stroke-dasharray:none;stroke-dashoffset:0;stroke-opacity:1;marker:none;marker-start:none;marker-mid:none;marker-end:none;paint-order:normal"
         id="rect910"
         width="6.999999"
         height="6.999999"
         x="193.83643"
         y="87.091309" /></g><g
       id="button3-path"
       inkscape:label="button3"
       transform="translate(0,-34)"><path
         sodipodi:nodetypes="ccc"
         style="color:#000000;overflow:visible;opacity:1;vector-effect:none;fill:none;fill-opacity:1;stroke:#888a85;stroke-width:1;stroke-linecap:square;stroke-linejoin:miter;stroke-miterlimit:4;stroke-dasharray:none;stroke-dashoffset:0;stroke-opacity:1;marker:none;marker-start:none;marker-mid:none;marker-end:none;paint-order:normal"
         d="m 104.20588,234.21474 18.19949,16.29102 H 477"
         id="path966"
         inkscape:connector-curvature="0" /><rect
         style="color:#000000;overflow:visible;opacity:1;vector-effect:none;fill:#2e3436;fill-opacity:1;stroke:none;stroke-width:2;stroke-linecap:square;stroke-linejoin:miter;stroke-miterlimit:4;stroke-dasharray:none;stroke-dashoffset:0;stroke-opacity:1;marker:none;marker-start:none;marker-mid:none;marker-end:none;paint-order:normal"
         id="rect976"
         width="6.999999"
         height="6.999999"
         x="100.50635"
         y="230.46964" /><rect
         y="250.00575"
         x="477"
         height="1"
         width="1"
         id="button3-leader"
         style="color:#000000;text-align:start;overflow:visible;vector-effect:none;fill:#888a85;fill-opacity:1;stroke:none;stroke-linecap:round"
         inkscape:label="#rect875" /></g><g
       id="button5-path"
       inkscape:label="button5"
       transform="translate(0,-34)"><path
         style="color:#000000;overflow:visible;opacity:1;vector-effect:none;fill:none;fill-opacity:1;stroke:#888a85;stroke-width:1;stroke-linecap:square;stroke-linejoin:miter;stroke-miterlimit:4;stroke-dasharray:none;stroke-dashoffset:0;stroke-opacity:1;marker:none;marker-start:none;marker-mid:none;marker-end:none;paint-order:normal"
         d="M 476.55132,170.50615 H 196.89818"
         id="path51"
         inkscape:connector-curvature="0"
         sodipodi:nodetypes="cc" /><rect
         style="color:#000000;overflow:visible;opacity:1;vector-effect:none;fill:#2e3436;fill-opacity:1;stroke:none;stroke-width:2;stroke-linecap:square;stroke-linejoin:miter;stroke-miterlimit:4;stroke-dasharray:none;stroke-dashoffset:0;stroke-opacity:1;marker:none;marker-start:none;marker-mid:none;marker-end:none;paint-order:normal"
         id="rect53"
         width="6.999999"
         height="6.999999"
         x="193.95459"
         y="167.08081" /><rect
         y="170"
         x="477"
         height="1"
         width="1"
         id="button5-leader"
         style="color:#000000;text-align:start;overflow:visible;vector-effect:none;fill:#888a85;fill-opacity:1;stroke:none;stroke-linecap:round"
         inkscape:label="#rect871" /></g></g><g
     inkscape:groupmode="layer"
     id="LEDs"
     inkscape:label="LEDs"
     style="display:inline"
     transform="translate(-68.791597,9.994236)"><g
       id="led0-path"
       inkscape:label="led0"
       transform="translate(-5.3640681,-5.9636652)"
       style="display:inline"><path
         sodipodi:nodetypes="ccc"
         style="color:#000000;display:inline;overflow:visible;opacity:1;vector-effect:none;fill:none;fill-opacity:1;stroke:#888a85;stroke-width:1;stroke-linecap:square;stroke-linejoin:miter;stroke-miterlimit:4;stroke-dasharray:none;stroke-dashoffset:0;stroke-opacity:1;marker:none;marker-start:none;marker-mid:none;marker-end:none;paint-order:normal"
         d="M 477.78037,165.95657 316.11623,356.65901 200.86875,356.50574"
         id="path4525"
         inkscape:connector-curvature="0" /><rect
         style="color:#000000;text-align:start;display:inline;overflow:visible;vector-effect:none;fill:#888a85;fill-opacity:1;stroke:none;stroke-linecap:round"
         id="led0-leader"
         width="1"
         height="1"
         x="477.46152"
         y="165.59027"
         inkscape:label="#rect881" /><rect
         style="color:#000000;display:inline;overflow:visible;opacity:1;vector-effect:none;fill:#2e3436;fill-opacity:1;stroke:none;stroke-width:2;stroke-linecap:square;stroke-linejoin:miter;stroke-miterlimit:4;stroke-dasharray:none;stroke-dashoffset:0;stroke-opacity:1;marker:none;marker-start:none;marker-mid:none;marker-end:none;paint-order:normal"
         id="rect4544"
         width="6.999999"
         height="6.999999"
         x="196.74048"
         y="352.76572" /></g></g></svg>
