<?xml version="1.0" encoding="UTF-8" standalone="no"?>
<svg
   width="490"
   height="490"
   viewBox="0 0 490 489.99999"
   version="1.1"
   id="svg8"
   inkscape:version="1.2.1 (9c6d41e410, 2022-07-14)"
   sodipodi:docname="logitech-g-pro-x-wireless-superlight.svg"
   inkscape:export-filename="/home/jimmac/logitech-g-pro.png"
   inkscape:export-xdpi="96"
   inkscape:export-ydpi="96"
   xmlns:inkscape="http://www.inkscape.org/namespaces/inkscape"
   xmlns:sodipodi="http://sodipodi.sourceforge.net/DTD/sodipodi-0.dtd"
   xmlns="http://www.w3.org/2000/svg"
   xmlns:svg="http://www.w3.org/2000/svg"
   xmlns:rdf="http://www.w3.org/1999/02/22-rdf-syntax-ns#"
   xmlns:cc="http://creativecommons.org/ns#"
   xmlns:dc="http://purl.org/dc/elements/1.1/">
  <defs
     id="defs2">
    <inkscape:path-effect
       effect="spiro"
       id="path-effect4193"
       is_visible="true"
       lpeversion="0" />
    <inkscape:path-effect
       effect="spiro"
       id="path-effect4185"
       is_visible="true"
       lpeversion="0" />
  </defs>
  <sodipodi:namedview
     id="base"
     pagecolor="#ffffff"
     bordercolor="#666666"
     borderopacity="1.0"
     inkscape:pageopacity="0.0"
     inkscape:pageshadow="2"
     inkscape:zoom="6.5317957"
     inkscape:cx="304.96412"
     inkscape:cy="224.46582"
     inkscape:document-units="px"
     inkscape:document-rotation="0"
     showgrid="false"
     units="px"
     borderlayer="true"
     inkscape:showpageshadow="false"
     inkscape:pagecheckerboard="false"
     showguides="true"
     inkscape:window-width="2554"
     inkscape:window-height="1364"
     inkscape:window-x="0"
     inkscape:window-y="0"
     inkscape:window-maximized="1"
     fit-margin-top="20"
     fit-margin-left="20"
     fit-margin-bottom="20"
     fit-margin-right="0"
     inkscape:guide-bbox="true"
     guidetolerance="10"
     objecttolerance="10"
     gridtolerance="10"
     inkscape:snap-object-midpoints="true"
     inkscape:snap-others="false"
     inkscape:snap-global="true"
     inkscape:snap-nodes="false"
     inkscape:snap-page="true"
     inkscape:deskcolor="#d1d1d1"
     inkscape:current-layer="Device">
    <inkscape:grid
       type="xygrid"
       id="grid956"
       originx="-68.791593"
       originy="1.2767161" />
  </sodipodi:namedview>
  <metadata
     id="metadata5">
    <rdf:RDF>
      <cc:Work
         rdf:about="">
        <dc:format>image/svg+xml</dc:format>
        <dc:type
           rdf:resource="http://purl.org/dc/dcmitype/StillImage" />
      </cc:Work>
    </rdf:RDF>
  </metadata>
  <g
     inkscape:groupmode="layer"
     id="Device"
     inkscape:label="Device"
     transform="translate(-68.791597,-394.02675)"
     style="display:inline">
    <path
       sodipodi:nodetypes="cccccccccccccccccsccccsccccccccc"
       inkscape:connector-curvature="0"
       id="path1292"
       d="m 411.63127,462.46782 c 4.40629,8.36378 6.13755,15.06724 6.82016,23.48815 1.56055,14.76125 1.11369,27.98742 1.13915,42.86676 l -3.7335,110.29823 c 2.54528,25.11778 6.54405,73.74287 6.54405,73.74287 0.77144,10.56348 -0.55047,31.11749 -0.55047,31.11749 -3.37122,27.41525 -12.35345,44.35663 -22.32637,59.44873 -21.39479,24.58959 -47.15795,43.21265 -86.69466,43.02304 -31.75226,-2.36708 -62.60527,-11.60114 -89.50521,-51.0223 -10.88481,-17.99328 -19.62185,-40.13397 -17.72808,-82.80313 0.7385,-16.58627 1.98625,-33.19741 4.92331,-58.11798 l -0.57942,-34.07971 1.39804,-1.84751 -0.0934,-5.24035 c -1.63581,-2.15086 -1.95328,-3.78884 -2.08609,-5.97247 -0.75602,-19.29177 -4.10626,-36.64509 -1.88211,-55.76637 l 1.72957,-0.11327 c -0.44474,-25.0789 -3.65836,-58.42395 3.13159,-78.34742 1.46273,-4.29209 2.1181,-7.48966 4.13977,-10.43677 l 1.23727,-0.0118 c 0.6379,1.56021 1.96928,1.33307 2.47801,-0.0282 V 456.17 c 4.22072,-5.501 8.81512,-11.21265 15.10029,-15.51002 18.27352,-12.49419 38.54508,-23.46168 77.54296,-26.52019 l -0.0455,7.62388 h 2.59435 l -0.0118,-7.61234 c 27.6197,1.93995 67.7761,10.86013 92.88021,42.54917 l -0.0122,5.8268 0.62606,0.0235 c -0.0237,1.62328 1.34598,1.89118 1.44937,-0.0359 z"
       style="fill:#d3d3ce;fill-opacity:1;stroke:#babdb6;stroke-width:3.52509;stroke-linecap:butt;stroke-linejoin:miter;stroke-miterlimit:4;stroke-dasharray:none;stroke-opacity:1" />
    <path
       sodipodi:nodetypes="cccccc"
       inkscape:connector-curvature="0"
       id="button4"
       d="m 209.00628,551.49 c 1.46657,19.37671 4.51872,38.64925 5.48933,58.06148 -0.27446,2.90346 -2.06155,3.54254 -3.2507,3.79063 -1.65248,-2.18147 -2.29427,-3.99844 -2.49924,-5.78797 -0.69691,-15.65238 -3.51973,-35.62294 -1.876,-55.95087 z"
       style="fill:#ffffff;fill-opacity:1;stroke:#babdb6;stroke-width:1.17503;stroke-linecap:butt;stroke-linejoin:miter;stroke-miterlimit:4;stroke-dasharray:none;stroke-opacity:1"
       inkscape:label="Fwd Left" />
    <path
       sodipodi:nodetypes="ccczzc"
       inkscape:connector-curvature="0"
       id="button3"
       d="m 215.37898,615.33696 -5.49528,5.09301 c -0.0972,17.18504 0.595,34.29667 1.82543,51.42294 0.4555,1.99452 2.02531,6.15375 3.48456,5.92953 1.45923,-0.2242 2.39035,-4.70965 2.40887,-5.65159 0.0186,-0.94192 -2.22358,-56.79389 -2.22358,-56.79389 z"
       style="fill:#ffffff;fill-opacity:1;stroke:#babdb6;stroke-width:1.17503;stroke-linecap:butt;stroke-linejoin:miter;stroke-miterlimit:4;stroke-dasharray:none;stroke-opacity:1"
       inkscape:label="Back Left" />
    <rect
       style="color:#000000;overflow:visible;opacity:1;fill:#ffffff;fill-opacity:1;stroke:#babdb6;stroke-width:1.17503;stroke-linecap:butt;stroke-linejoin:bevel;stroke-miterlimit:4;stroke-dasharray:none;stroke-dashoffset:0;stroke-opacity:1;marker:none;marker-start:none;marker-mid:none;marker-end:none;paint-order:normal"
       id="button2"
       width="25.402229"
       height="64.443535"
       x="-326.73544"
       y="466.93695"
       rx="11.987945"
       ry="11.022574"
       inkscape:label="MMB"
       transform="scale(-1,1)" />
    <path
       sodipodi:nodetypes="ccccccccccc"
       inkscape:connector-curvature="0"
       id="button1"
       d="m 398.00041,600.49334 c -0.64731,2.79492 -2.3779,4.97697 -6.22869,6.17014 l -76.49934,-0.0626 -0.0658,-71.87201 c 7.86128,-0.73851 15.03229,-2.74484 15.75228,-15.08986 l 0.13722,-41.48464 c -0.7961,-5.60304 -2.26573,-13.02257 -15.79173,-14.93056 l -0.13106,-49.07242 c 33.27841,1.58925 72.20074,15.19493 92.88022,42.54918 -0.57598,53.90248 -4.35604,97.1914 -10.0531,143.79283 z"
       style="fill:#e6e6e4;fill-opacity:1;stroke:#babdb6;stroke-width:1.76255;stroke-linecap:butt;stroke-linejoin:miter;stroke-miterlimit:4;stroke-dasharray:none;stroke-opacity:1"
       inkscape:label="RMB" />
    <path
       style="fill:#e6e6e4;fill-opacity:1;stroke:#babdb6;stroke-width:1.76255;stroke-linecap:butt;stroke-linejoin:miter;stroke-miterlimit:4;stroke-dasharray:none;stroke-opacity:1"
       d="m 230.04603,600.37743 c 0.6473,2.79493 2.37789,4.97697 6.22868,6.17015 l 76.49934,-0.0626 -0.018,-71.75611 c -7.86127,-0.73851 -14.94852,-2.86075 -15.66851,-15.20576 l -0.13722,-41.48465 c 0.7961,-5.60304 2.58643,-13.50486 15.79173,-14.93056 l 0.13105,-49.07241 c -33.75228,1.76695 -74.98473,15.96497 -92.88021,42.13454 0.57598,53.90248 4.35604,97.60603 10.0531,144.20747 z"
       id="button0"
       inkscape:connector-curvature="0"
       sodipodi:nodetypes="ccccccccccc"
       inkscape:label="LMB" />
    <path
       sodipodi:nodetypes="cccccccc"
       inkscape:connector-curvature="0"
       id="path1318"
       d="m 411.63127,462.46782 c 0.50677,18.8995 -0.27095,37.799 -1.54295,56.6985 -2.57558,30.859 -5.49778,57.55863 -8.37694,84.7747 -1.72034,4.61788 -4.53661,6.76992 -8.04188,7.37172 -50.69637,-1.234 -103.29617,-1.62202 -159.66462,-0.33508 -2.77407,-0.9004 -5.54929,-1.79336 -7.70679,-6.70156 -2.48995,-24.38674 -4.9799,-46.00334 -7.46985,-76.80716 -1.2296,-19.1436 -1.93028,-43.52558 -2.5506,-64.76313"
       style="fill:none;stroke:#babdb6;stroke-width:1.76255;stroke-linecap:butt;stroke-linejoin:miter;stroke-miterlimit:4;stroke-dasharray:none;stroke-opacity:1" />
    <g
       style="display:inline"
       id="path123123123190231"
       transform="matrix(1.1750306,0,0,1.1750306,490.85693,-82.668244)"
       inkscape:label="DPI LED">
      <ellipse
         style="fill:#babdb6;fill-opacity:1;stroke:#000000;stroke-width:0;stroke-miterlimit:4;stroke-dasharray:none"
         id="ellipse1300"
         cx="-150.51967"
         cy="610.96423"
         rx="1.8137393"
         ry="1.9375004" />
    </g>
    <path
       inkscape:label="LOGO LED"
       transform="rotate(-90)"
       sodipodi:open="true"
       d="m -715.09752,330.55659 a 23.426294,23.426294 0 0 1 -33.12979,0 23.426294,23.426294 0 0 1 0,-33.12978 23.426294,23.426294 0 0 1 33.12979,0"
       sodipodi:arc-type="arc"
       sodipodi:end="5.4977871"
       sodipodi:start="0.78539816"
       sodipodi:ry="23.426294"
       sodipodi:rx="23.426294"
       sodipodi:cy="313.9917"
       sodipodi:cx="-731.66241"
       sodipodi:type="arc"
       id="path12312321"
       style="color:#000000;display:inline;overflow:visible;fill:none;fill-opacity:1;stroke:#babdb6;stroke-width:12;stroke-linecap:square;stroke-linejoin:bevel;stroke-miterlimit:4;stroke-dasharray:none;stroke-opacity:1" />
  </g>
  <g
     inkscape:groupmode="layer"
     id="Buttons"
     inkscape:label="Buttons"
     style="display:inline"
     transform="translate(-68.791597,5.973336)">
    <g
       id="button2-path"
       inkscape:label="#button2-path"
       transform="matrix(1.1750306,0,0,1.1750306,-12.013799,-2.1410825)">
      <path
         sodipodi:nodetypes="cc"
         inkscape:connector-curvature="0"
         id="path960"
         d="m 485.19274,86.21028 -207.71221,10e-7"
         style="color:#000000;overflow:visible;opacity:1;fill:none;fill-opacity:1;stroke:#888a85;stroke-width:1;stroke-linecap:square;stroke-linejoin:miter;stroke-miterlimit:4;stroke-dasharray:none;stroke-dashoffset:0;stroke-opacity:1;marker:none;marker-start:none;marker-mid:none;marker-end:none;paint-order:normal" />
      <rect
         y="82.710281"
         x="273.98053"
         height="6.999999"
         width="6.999999"
         id="rect970"
         style="color:#000000;overflow:visible;opacity:1;fill:#2e3436;fill-opacity:1;stroke:none;stroke-width:2;stroke-linecap:square;stroke-linejoin:miter;stroke-miterlimit:4;stroke-dasharray:none;stroke-dashoffset:0;stroke-opacity:1;marker:none;marker-start:none;marker-mid:none;marker-end:none;paint-order:normal" />
      <rect
         inkscape:label="#button2-leader"
         style="color:#000000;text-align:start;overflow:visible;fill:#888a85;fill-opacity:1;stroke:none;stroke-linecap:round"
         id="button2-leader"
         width="1"
         height="1"
         x="485"
         y="85.710289" />
    </g>
    <g
       id="button4-path"
       inkscape:label="#button4-path"
       transform="matrix(1.1750306,0,0,1.1750306,-12.013799,0.01880164)">
      <path
         sodipodi:nodetypes="cc"
         inkscape:connector-curvature="0"
         id="path964"
         d="m 186.12905,161.04893 -116.990518,0.0625"
         style="color:#000000;overflow:visible;opacity:1;fill:none;fill-opacity:1;stroke:#888a85;stroke-width:1;stroke-linecap:square;stroke-linejoin:miter;stroke-miterlimit:4;stroke-dasharray:none;stroke-dashoffset:0;stroke-opacity:1;marker:none;marker-start:none;marker-mid:none;marker-end:none;paint-order:normal" />
      <rect
         transform="scale(-1,1)"
         inkscape:label="#button4-leader"
         style="color:#000000;text-align:end;overflow:visible;fill:#888a85;fill-opacity:1;stroke:none;stroke-width:1;stroke-linecap:round"
         id="button4-leader"
         width="0.32565016"
         height="1"
         x="-69.138535"
         y="160.58018" />
      <rect
         transform="scale(-1,1)"
         y="157.58018"
         x="-189.79312"
         height="6.999999"
         width="6.999999"
         id="rect974"
         style="color:#000000;overflow:visible;opacity:1;fill:#2e3436;fill-opacity:1;stroke:none;stroke-width:2;stroke-linecap:square;stroke-linejoin:miter;stroke-miterlimit:4;stroke-dasharray:none;stroke-dashoffset:0;stroke-opacity:1;marker:none;marker-start:none;marker-mid:none;marker-end:none;paint-order:normal" />
    </g>
    <g
       id="button3-path"
       inkscape:label="#button3-path"
       transform="matrix(1.1750306,0,0,1.1750306,-11.737762,24.310079)">
      <path
         sodipodi:nodetypes="cc"
         style="color:#000000;overflow:visible;opacity:1;fill:none;fill-opacity:1;stroke:#888a85;stroke-width:1;stroke-linecap:square;stroke-linejoin:miter;stroke-miterlimit:4;stroke-dasharray:none;stroke-dashoffset:0;stroke-opacity:1;marker:none;marker-start:none;marker-mid:none;marker-end:none;paint-order:normal"
         d="M 187.9817,205.35644 H 69.129695"
         id="path966"
         inkscape:connector-curvature="0" />
      <rect
         transform="scale(-1,1)"
         style="color:#000000;overflow:visible;opacity:1;fill:#2e3436;fill-opacity:1;stroke:none;stroke-width:2;stroke-linecap:square;stroke-linejoin:miter;stroke-miterlimit:4;stroke-dasharray:none;stroke-dashoffset:0;stroke-opacity:1;marker:none;marker-start:none;marker-mid:none;marker-end:none;paint-order:normal"
         id="rect976"
         width="6.999999"
         height="6.999999"
         x="-191.91962"
         y="201.85645" />
      <rect
         transform="scale(-1,1)"
         y="204.85645"
         x="-69.1297"
         height="1"
         width="0.32190493"
         id="button3-leader"
         style="color:#000000;text-align:end;overflow:visible;fill:#888a85;fill-opacity:1;stroke:none;stroke-width:1;stroke-linecap:round"
         inkscape:label="#button3-leader" />
    </g>
    <g
       id="button1-path"
       inkscape:label="#button1-path"
       transform="matrix(1.1750306,0,0,1.1750306,-12.013799,-2.1410825)">
      <path
         sodipodi:nodetypes="ccc"
         style="color:#000000;overflow:visible;opacity:1;fill:none;fill-opacity:1;stroke:#888a85;stroke-width:1;stroke-linecap:square;stroke-linejoin:miter;stroke-miterlimit:4;stroke-dasharray:none;stroke-dashoffset:0;stroke-opacity:1;marker:none;marker-start:none;marker-mid:none;marker-end:none;paint-order:normal"
         d="m 316.65466,47.839954 25.8491,-28.270742 H 485"
         id="path958"
         inkscape:connector-curvature="0" />
      <rect
         inkscape:label="#button1-leader"
         style="color:#000000;text-align:start;overflow:visible;fill:#888a85;fill-opacity:1;stroke:none;stroke-linecap:round"
         id="button1-leader"
         width="1"
         height="1"
         x="485"
         y="19.069216" />
      <rect
         style="color:#000000;overflow:visible;opacity:1;fill:#2e3436;fill-opacity:1;stroke:none;stroke-width:2;stroke-linecap:square;stroke-linejoin:miter;stroke-miterlimit:4;stroke-dasharray:none;stroke-dashoffset:0;stroke-opacity:1;marker:none;marker-start:none;marker-mid:none;marker-end:none;paint-order:normal"
         id="rect968"
         width="6.999999"
         height="6.999999"
         x="313.15466"
         y="44.339954" />
    </g>
    <g
       id="button0-path"
       inkscape:label="#button0-path"
       transform="matrix(1.1750306,0,0,1.1750306,-12.013799,-2.1410825)">
      <rect
         transform="scale(-1,1)"
         inkscape:label="#button0-leader"
         y="19.069212"
         x="-69.800262"
         height="1"
         width="1"
         id="button0-leader"
         style="color:#000000;text-align:end;overflow:visible;fill:#888a85;fill-opacity:1;stroke:none;stroke-linecap:round" />
      <path
         inkscape:connector-curvature="0"
         id="path1398"
         d="M 237.81014,47.839954 211.96104,19.569212 H 69.464797"
         style="color:#000000;overflow:visible;opacity:1;fill:none;fill-opacity:1;stroke:#888a85;stroke-width:1;stroke-linecap:square;stroke-linejoin:miter;stroke-miterlimit:4;stroke-dasharray:none;stroke-dashoffset:0;stroke-opacity:1;marker:none;marker-start:none;marker-mid:none;marker-end:none;paint-order:normal"
         sodipodi:nodetypes="ccc" />
      <rect
         style="color:#000000;overflow:visible;opacity:1;fill:#2e3436;fill-opacity:1;stroke:none;stroke-width:2;stroke-linecap:square;stroke-linejoin:miter;stroke-miterlimit:4;stroke-dasharray:none;stroke-dashoffset:0;stroke-opacity:1;marker:none;marker-start:none;marker-mid:none;marker-end:none;paint-order:normal"
         id="rect910"
         width="6.999999"
         height="6.999999"
         x="234.31013"
         y="44.339954" />
    </g>
  </g>
  <g
     inkscape:groupmode="layer"
     id="LEDs"
     inkscape:label="LEDs"
     style="display:inline"
     transform="translate(-68.791597,5.973336)" />
</svg>
