<?xml version="1.0" encoding="UTF-8" standalone="no"?>
<!-- Created with Inkscape (http://www.inkscape.org/) -->

<svg
   version="1.1"
   id="svg64"
   width="490"
   height="490"
   viewBox="0 0 490 490"
   sodipodi:docname="roccat-kone-pure.svg"
   inkscape:version="1.2.1 (9c6d41e410, 2022-07-14)"
   style="enable-background:new"
   xmlns:inkscape="http://www.inkscape.org/namespaces/inkscape"
   xmlns:sodipodi="http://sodipodi.sourceforge.net/DTD/sodipodi-0.dtd"
   xmlns="http://www.w3.org/2000/svg"
   xmlns:svg="http://www.w3.org/2000/svg"
   xmlns:rdf="http://www.w3.org/1999/02/22-rdf-syntax-ns#"
   xmlns:cc="http://creativecommons.org/ns#"
   xmlns:dc="http://purl.org/dc/elements/1.1/">
  <metadata
     id="metadata70">
    <rdf:RDF>
      <cc:Work
         rdf:about="">
        <dc:format>image/svg+xml</dc:format>
        <dc:type
           rdf:resource="http://purl.org/dc/dcmitype/StillImage" />
      </cc:Work>
    </rdf:RDF>
  </metadata>
  <defs
     id="defs68">
    <inkscape:path-effect
       effect="fillet_chamfer"
       id="path-effect1423"
       is_visible="true"
       lpeversion="1"
       nodesatellites_param="F,0,0,1,0,4,0,1 @ F,0,0,1,0,4,0,1 @ F,0,0,1,0,4,0,1 @ F,0,0,1,0,4,0,1 @ F,0,0,1,0,4,0,1 @ F,0,0,1,0,4,0,1 @ F,0,0,1,0,4,0,1 @ F,0,0,1,0,4,0,1 @ F,0,0,1,0,4,0,1"
       unit="px"
       method="auto"
       mode="F"
       radius="4"
       chamfer_steps="1"
       flexible="false"
       use_knot_distance="true"
       apply_no_radius="true"
       apply_with_radius="true"
       only_selected="false"
       hide_knots="false" />
    <inkscape:path-effect
       effect="fillet_chamfer"
       id="path-effect1073"
       is_visible="true"
       lpeversion="1"
       nodesatellites_param="F,0,0,1,0,4,0,1 @ F,0,0,1,0,4,0,1 @ F,0,0,1,0,4,0,1 @ F,0,0,1,0,4,0,1"
       unit="px"
       method="auto"
       mode="F"
       radius="4"
       chamfer_steps="1"
       flexible="false"
       use_knot_distance="true"
       apply_no_radius="true"
       apply_with_radius="true"
       only_selected="false"
       hide_knots="false" />
    <clipPath
       clipPathUnits="userSpaceOnUse"
       id="clipPath1022">
      <path
         style="display:inline;fill:#c061cb;fill-opacity:1;stroke:none;stroke-width:1.08;stroke-linecap:butt;stroke-linejoin:round;stroke-miterlimit:4;stroke-dasharray:none;stroke-opacity:1;enable-background:new"
         d="m 338.13171,205.77193 c 2.892,-11.86823 21.46609,-86.78094 23.46819,-140.60317 0.71064,-19.10417 6.99178,-15.92056 6.89383,-22.6313 -0.31796,-21.78805 -1.81474,-26.75039 -5.59834,-51.764611 -2.83789,-18.7619 -7.42288,-25.778081 -15.17605,-50.695597 -9.85541,-7.361676 -19.50703,-12.694956 -19.50703,-12.694956 0,0 -21.17064,-0.230181 -36.13929,0.06285 -11.96841,0.234295 -23.77505,1.482145 -35.69554,2.615684 -28.59648,2.719289 -35.02562,3.980164 -77.92663,15.071285 -7.42693,5.866451 -9.8662,8.103164 -17.13036,16.619446 -9.87689,30.48832 -15.56504,80.713429 -15.56504,80.713429 0,0 1.76515,3.66345 7.06926,13.60297 0.75346,18.02972 4.50209,48.45084 6.15105,59.68108 4.19037,28.53837 23.55168,109.61336 20.27145,146.82541 -4.55925,51.72149 -18.50451,61.60809 -18.50451,61.60809 0,0 6.13242,10.40509 26.18084,24.3007 20.04567,13.89369 46.13554,24.67755 66.69646,24.20541 21.40845,-0.49157 36.36613,-5.8681 49.48704,-13.45416 33.32264,-19.26601 44.36709,-37.41206 44.36709,-37.41206 0,0 -29.53402,-33.18764 -9.34242,-116.0505 z"
         id="path1024"
         inkscape:connector-curvature="0"
         sodipodi:nodetypes="ssssccssccccsscssscs"
         inkscape:label="interior" />
    </clipPath>
  </defs>
  <sodipodi:namedview
     pagecolor="#ffffff"
     bordercolor="#666666"
     borderopacity="1"
     objecttolerance="10"
     gridtolerance="10"
     guidetolerance="10"
     inkscape:pageopacity="0"
     inkscape:pageshadow="2"
     id="namedview66"
     showgrid="true"
     showguides="false"
     inkscape:showpageshadow="0"
     inkscape:pagecheckerboard="1"
     inkscape:deskcolor="#d1d1d1"
     inkscape:current-layer="Device" />
  <g
     inkscape:groupmode="layer"
     id="Device"
     inkscape:label="Device"
     style="display:inline;opacity:1"
     transform="translate(0,100)">
    <path
       sodipodi:nodetypes="sssssccssccssssssssss"
       inkscape:connector-curvature="0"
       id="outline"
       d="m 372.24055,237.69465 c 1.68325,-8.17151 -9.44365,-32.17836 -14.02709,-53.00802 -6.0461,-27.47673 -5.20542,-26.09849 -4.94688,-45.95317 0.41009,-31.4968 8.25605,-59.57378 7.72764,-98.268978 -0.23692,-17.350002 -1.96312,-34.1552443 -6.06333,-51.043203 -4.38593,-18.064667 -7.27168,-25.253955 -14.86695,-49.664841 -9.65495,-7.211997 -19.11027,-12.436839 -19.11027,-12.436839 0,0 -20.7402,-0.225501 -35.4045,0.06157 -11.72507,0.229531 -23.29167,1.452009 -34.9698,2.562501 -28.01508,2.664 -34.31351,3.899238 -76.34237,14.764852 -7.27599,5.747173 -9.66568,7.938408 -16.78224,16.281535 -10.4364,34.6388115 -14.27587,60.061679 -17.89692,106.471457 -1.01303,12.983742 -1.54412,26.847638 -4.3454,38.827216 -6.34695,27.14252 -12.53603,48.73274 -15.57618,73.71099 -1.96745,16.16486 -3.16915,37.7591 -1.21334,48.83736 4.23285,23.97619 10.32572,43.33786 21.21907,62.0855 11.45855,19.7204 23.25046,35.32295 42.8911,48.93603 19.63795,13.6112 45.19723,24.1758 65.34011,23.71326 20.97317,-0.48157 35.55293,-5.87801 48.48101,-13.1806 21.99654,-12.42504 38.16524,-26.79899 48.46445,-43.14147 16.07307,-25.50432 21.31301,-39.89897 27.42189,-69.55515 z"
       style="display:inline;fill:#d3d3ce;fill-opacity:1;stroke:#babdb6;stroke-width:6;stroke-linecap:butt;stroke-linejoin:round;stroke-miterlimit:4;stroke-dasharray:none;stroke-opacity:1;enable-background:new"
       inkscape:label="outline" />
    <path
       style="fill:#c6c7c2;fill-opacity:1;stroke:none;stroke-width:0.999996px;stroke-linecap:butt;stroke-linejoin:miter;stroke-opacity:1"
       d="m 135.19564,108.15186 c 0,0 7.69941,94.02261 7.83844,117.85756 0.13902,23.83494 -19.4363,3.46703 -19.43774,-23.73748 -9.8e-4,-27.20451 11.5993,-94.12008 11.5993,-94.12008 z"
       id="path1162" />
    <g
       id="g267"
       clip-path="url(#clipPath1022)"
       transform="matrix(0.97966778,0,0,0.97966775,5.2423251e-5,-1.5391787)"
       style="stroke-width:1.02075">
      <path
         style="display:inline;opacity:1;fill:#d3d3ce;fill-opacity:1;stroke:#babdb6;stroke-width:1.08759;stroke-linecap:butt;stroke-linejoin:round;stroke-miterlimit:4;stroke-dasharray:none;stroke-opacity:1;enable-background:new"
         d="m 337.04313,205.02244 c 2.85312,-11.70872 21.17761,-85.61475 23.1528,-138.713697 0.7011,-18.847447 6.89785,-15.706615 6.80119,-22.327172 -0.31367,-21.495259 -1.79035,-26.390912 -5.5231,-51.068991 -2.79976,-18.509773 -7.32313,-25.43167 -14.97211,-50.014338 -9.72296,-7.262748 -19.24489,-12.524358 -19.24489,-12.524358 0,0 -20.88615,-0.227088 -35.65365,0.06201 -11.80755,0.231148 -23.45555,1.462228 -35.21584,2.580536 -28.21221,2.682746 -34.55495,3.926677 -76.87945,14.868752 -7.32712,5.787617 -9.7336,7.994273 -16.90014,16.396111 -9.74417,30.0786108 -15.35588,79.628781 -15.35588,79.628781 0,0 1.74142,3.61422 6.97425,13.420173 0.74335,17.787434 4.44161,47.799743 6.0684,58.879053 4.13406,28.15488 23.23518,108.14036 19.99905,144.85234 -4.49799,51.02645 -18.25584,60.78018 -18.25584,60.78018 0,0 6.05001,10.26529 25.829,23.97415 19.7763,13.707 45.51556,24.34593 65.80018,23.88015 21.12075,-0.48497 35.87743,-5.78926 48.82203,-13.27338 32.87483,-19.00711 43.77087,-36.90929 43.77087,-36.90929 0,0 -29.13715,-32.74166 -9.21687,-114.49101 z"
         id="interior"
         inkscape:connector-curvature="0"
         sodipodi:nodetypes="ssssccssccccsscssscs"
         inkscape:label="interior" />
      <g
         id="led0"
         inkscape:label="led0"
         transform="matrix(2.3650509,0,0,2.3650509,-353.5746,-541.02669)"
         style="display:inline;stroke-width:1.02075">
        <path
           style="color:#000000;display:inline;overflow:visible;fill:none;fill-opacity:1;stroke:#babdb6;stroke-width:11.5194;stroke-linecap:square;stroke-linejoin:bevel;stroke-miterlimit:4;stroke-dasharray:none;stroke-opacity:0.5"
           id="led0-3"
           sodipodi:type="arc"
           sodipodi:cx="-357.60452"
           sodipodi:cy="272.16962"
           sodipodi:rx="22.499123"
           sodipodi:ry="22.499123"
           sodipodi:start="0.78539816"
           sodipodi:end="5.4977871"
           sodipodi:arc-type="arc"
           d="m -341.69524,288.0789 a 22.499123,22.499123 0 0 1 -31.81856,0 22.499123,22.499123 0 0 1 -10e-6,-31.81856 22.499123,22.499123 0 0 1 31.81857,-10e-6"
           sodipodi:open="true"
           transform="rotate(-90)"
           inkscape:label="path883" />
      </g>
    </g>
    <path
       style="display:inline;opacity:1;fill:#d3d3ce;fill-opacity:1;stroke:none;stroke-width:1.08;stroke-linecap:butt;stroke-linejoin:round;stroke-miterlimit:4;stroke-dasharray:none;stroke-opacity:1;enable-background:new"
       d="m 251.16669,-70.056126 c 0,0 -0.79499,0.07986 -1.23416,0.121981 -26.89288,2.578811 -31.67955,3.95137 -73.03309,14.642397 -7.276,5.747173 -9.66408,7.937631 -16.78064,16.280758 -9.67641,29.868424 -15.2499,79.074212 -15.2499,79.074212 0,0 1.728,3.587102 6.92416,13.324534 0.22748,5.444797 1.25287,12.044604 1.89178,18.890179 0.36955,3.959631 1.21501,11.939701 1.21501,11.939701 h 72.11478 l -3.76465,-98.370992 c -0.33641,-8.789193 6.4288,-15.87655 14.41278,-15.87655 h 13.18343 z"
       id="button0"
       inkscape:connector-curvature="0"
       sodipodi:nodetypes="ccccccscccscc" />
    <path
       style="display:inline;opacity:1;fill:#d3d3ce;fill-opacity:1;stroke:none;stroke-width:1.08;stroke-linecap:butt;stroke-linejoin:round;stroke-miterlimit:4;stroke-dasharray:none;stroke-opacity:1;enable-background:new"
       d="m 309.33925,-72.75643 c -7.01809,-0.02049 -15.87038,-0.0048 -23.20253,0.138721 -11.72507,0.229532 -34.97003,2.561583 -34.97003,2.561583 l -0.3205,40.02622 h 11.36328 c 7.98398,0 14.63476,7.083782 14.4104,15.87655 l -4.58453,98.370992 h 78.56476 c 0.57366,-6.197359 1.14177,-12.66346 1.38245,-19.535966 0.71796,-20.502239 6.33029,-19.833702 6.42679,-24.549088 -0.31127,-21.345061 -2.46409,-30.2876286 -6.3071,-51.04031 -3.70254,-19.994176 -7.27879,-22.820998 -14.04446,-49.334978 -9.65493,-7.211997 -19.1102,-12.437188 -19.1102,-12.437188 0,0 -2.59026,-0.05605 -9.60833,-0.07654 z"
       id="button1"
       inkscape:connector-curvature="0"
       sodipodi:nodetypes="ssccscccscsccss" />
    <path
       style="fill:#babdb6;fill-opacity:1;stroke:#9a9996;stroke-width:0.999996px;stroke-linecap:butt;stroke-linejoin:miter;stroke-opacity:1"
       d="m 247.0827,-40.15802 -16.75339,7.958588 a 6.3955257,6.3955257 122.56686 0 0 -3.65099,5.716175 l -0.69131,72.880468 a 11.958132,11.958132 72.048355 0 0 2.33836,7.217457 l 2.48655,3.366914 a 13.038279,13.038279 70.608682 0 1 2.53933,7.214313 l 2.73256,66.988545 a 4.1664923,4.1664923 43.832059 0 0 4.16303,3.99668 h 18.96718 a 4.2304657,4.2304657 136.60395 0 0 4.22384,-3.99373 l 3.64265,-64.992851 a 32.015267,32.015267 100.32956 0 1 1.42341,-7.809623 l 3.82046,-12.153 a 26.062217,26.062217 98.725605 0 0 1.19957,-7.815891 v -65.184898 a 6.3941435,6.3941435 57.971037 0 0 -3.59695,-5.749849 l -15.6343,-7.605804 a 8.3203367,8.3203367 0.2661643 0 0 -7.21,-0.03349 z"
       id="path1420"
       sodipodi:nodetypes="cccccccccc"
       inkscape:path-effect="#path-effect1423"
       inkscape:original-d="m 250.69575,-41.874375 -23.97949,11.391298 -0.76719,80.880108 7.23915,9.802188 3.05862,74.981901 h 26.96718 l 4.09033,-72.980313 6.2196,-19.784782 v -73.184898 z" />
    <rect
       style="display:inline;opacity:0.97;fill:#ffffff;fill-opacity:1;stroke:#9a9996;stroke-width:0.999996;stroke-linejoin:bevel;stroke-miterlimit:4;stroke-dasharray:none;stroke-opacity:1;paint-order:normal;enable-background:new"
       id="button2"
       width="25.813265"
       height="67.451828"
       x="236.80966"
       y="-21.12373"
       ry="13.1745"
       inkscape:label="button2"
       rx="13.1745" />
    <path
       id="button7"
       style="display:inline;opacity:1;fill:#ffffff;fill-opacity:1;stroke:#9e9e9b;stroke-width:0.999996;stroke-linejoin:bevel;stroke-dasharray:none;stroke-opacity:1;enable-background:new"
       inkscape:label="button7"
       d="m 243.51195,55.985246 h 12.8406 c 2.8915,0 5.37717,2.33213 5.21932,5.219322 l -1.03779,18.981175 c -0.14378,2.629772 -2.12027,4.753969 -4.75397,4.753969 h -11.69573 c -2.6337,0 -4.61019,-2.124197 -4.75397,-4.753969 l -1.03779,-18.981175 c -0.15785,-2.887192 2.32782,-5.219322 5.21933,-5.219322 z"
       sodipodi:nodetypes="sssssssss" />
    <path
       style="font-variation-settings:normal;display:inline;opacity:1;fill:#ffffff;fill-opacity:1;stroke:#9e9e9b;stroke-width:0.999996;stroke-linecap:butt;stroke-linejoin:bevel;stroke-miterlimit:4;stroke-dasharray:none;stroke-dashoffset:0;stroke-opacity:1;paint-order:normal;enable-background:new;stop-color:#000000;stop-opacity:1"
       d="m 243.83726,90.912245 h 12.18998 a 3.7881567,3.7881567 46.558101 0 1 3.78256,3.994085 l -0.9966,18.30565 a 4.2236901,4.2236901 136.5581 0 1 -4.21744,3.99409 h -9.32702 a 4.2236901,4.2236901 43.441899 0 1 -4.21744,-3.99409 l -0.9966,-18.30565 a 3.7881567,3.7881567 133.4419 0 1 3.78256,-3.994085 z"
       id="button8"
       inkscape:connector-curvature="0"
       sodipodi:nodetypes="ccccc"
       inkscape:label="button8"
       inkscape:path-effect="#path-effect1073"
       inkscape:original-d="m 239.83726,90.912245 h 20.18998 l -1.43148,26.293825 h -17.32702 z" />
    <path
       style="display:inline;opacity:1;fill:#ffffff;fill-opacity:1;stroke:#babdb6;stroke-width:1.08;stroke-linecap:butt;stroke-linejoin:bevel;stroke-miterlimit:4;stroke-dasharray:none;stroke-opacity:1;paint-order:normal;enable-background:new"
       d="m 160.00511,195.37088 -7.6922,-47.91073 -10.16448,-3.17494 -5.16321,-6.77225 3.29894,53.36166 c 0,0 6.42231,7.5339 9.31017,8.47288 12.12393,3.94205 10.41078,-3.97662 10.41078,-3.97662 z"
       id="button4"
       inkscape:connector-curvature="0"
       sodipodi:nodetypes="cccccsc"
       inkscape:label="button4" />
    <path
       style="display:inline;fill:#ffffff;fill-opacity:1;stroke:#babdb6;stroke-width:1.08;stroke-linecap:butt;stroke-linejoin:bevel;stroke-miterlimit:4;stroke-dasharray:none;stroke-opacity:1;enable-background:new"
       d="m 149.20919,130.07894 -5.36108,-57.097192 -2.21837,-2.56864 -5.48756,4.553505 -1.51782,10.041056 0.93404,37.368571 4.66703,4.56648 z"
       id="button3"
       inkscape:connector-curvature="0"
       sodipodi:nodetypes="cccccccc"
       inkscape:label="button3" />
    <path
       style="display:inline;fill:none;stroke:#babdb6;stroke-width:0.999996px;stroke-linecap:butt;stroke-linejoin:miter;stroke-opacity:1"
       d="M 251.30378,-30.174087 V -70.94011"
       id="divider"
       inkscape:connector-curvature="0"
       sodipodi:nodetypes="cc"
       inkscape:label="divider" />
  </g>
  <g
     inkscape:groupmode="layer"
     id="LEDs"
     inkscape:label="LEDs"
     style="display:inline"
     transform="translate(0,100)">
    <g
       id="led0-path"
       inkscape:label="led0-path"
       transform="matrix(0.97966778,0,0,0.97966775,-29.389981,-1.5391787)"
       style="stroke-width:1.02075">
      <rect
         y="309.45645"
         x="529"
         height="1"
         width="1"
         id="led0-leader"
         style="color:#000000;text-align:start;display:inline;overflow:visible;fill:#888a85;fill-opacity:1;stroke:none;stroke-width:1.02075;stroke-linecap:round;enable-background:new"
         inkscape:label="led0-leader" />
      <path
         sodipodi:nodetypes="cc"
         inkscape:connector-curvature="0"
         id="path10022"
         d="M 530,309.95645 H 289.2365"
         style="fill:none;stroke:#888a85;stroke-width:1.02075px;stroke-linecap:butt;stroke-linejoin:miter;stroke-opacity:1;enable-background:new" />
      <rect
         y="307.15646"
         x="286.43805"
         height="5.5999994"
         width="5.5999994"
         id="rect968-6-7"
         style="color:#000000;display:inline;overflow:visible;opacity:1;fill:#2e3436;fill-opacity:1;stroke:none;stroke-width:1.63321;stroke-linecap:square;stroke-linejoin:miter;stroke-miterlimit:4;stroke-dasharray:none;stroke-dashoffset:0;stroke-opacity:1;marker:none;marker-start:none;marker-mid:none;marker-end:none;paint-order:normal;enable-background:new" />
    </g>
  </g>
  <g
     inkscape:groupmode="layer"
     id="Buttons"
     inkscape:label="Buttons"
     style="display:inline"
     transform="translate(0,100)">
    <g
       id="button1-path"
       inkscape:label="button1-path"
       transform="matrix(0.97966778,0,0,0.97966775,5.2423251e-5,-60.319244)"
       style="stroke-width:1.02075">
      <rect
         y="39.456459"
         x="499"
         height="1"
         width="1"
         id="button1-leader"
         style="color:#000000;text-align:start;display:inline;overflow:visible;fill:#888a85;fill-opacity:1;stroke:none;stroke-width:1.02075;stroke-linecap:round;enable-background:new"
         inkscape:label="button1-leader" />
      <path
         sodipodi:nodetypes="cc"
         inkscape:connector-curvature="0"
         id="path9812"
         d="m 500,39.956 -177.00571,4.59e-4"
         style="fill:none;stroke:#888a85;stroke-width:1.02075px;stroke-linecap:butt;stroke-linejoin:miter;stroke-opacity:1;enable-background:new" />
      <rect
         y="37.156231"
         x="320.36469"
         height="5.5999994"
         width="5.5999994"
         id="rect968-5-5-6"
         style="color:#000000;display:inline;overflow:visible;opacity:1;fill:#2e3436;fill-opacity:1;stroke:none;stroke-width:1.63321;stroke-linecap:square;stroke-linejoin:miter;stroke-miterlimit:4;stroke-dasharray:none;stroke-dashoffset:0;stroke-opacity:1;marker:none;marker-start:none;marker-mid:none;marker-end:none;paint-order:normal;enable-background:new" />
    </g>
    <g
       id="button2-path"
       transform="matrix(0.97966778,0,0,0.97966775,5.2423251e-5,-60.319244)"
       inkscape:label="button2-path"
       style="stroke-width:1.02075">
      <rect
         y="129.45645"
         x="499"
         height="1"
         width="1"
         id="button2-leader"
         style="color:#000000;text-align:start;display:inline;overflow:visible;fill:#888a85;fill-opacity:1;stroke:none;stroke-width:1.02075;stroke-linecap:round;enable-background:new"
         inkscape:label="button2-leader" />
      <path
         sodipodi:nodetypes="ccc"
         inkscape:connector-curvature="0"
         id="path9850"
         d="m 500,129.956 -135.11149,4.6e-4 -48.78193,-48.78193 h -60.81031"
         style="fill:none;stroke:#888a85;stroke-width:1.02075px;stroke-linecap:butt;stroke-linejoin:miter;stroke-opacity:1;enable-background:new" />
      <rect
         y="78.513"
         x="252.31935"
         height="5.5999994"
         width="5.5999994"
         id="rect968-5"
         style="color:#000000;display:inline;overflow:visible;opacity:1;fill:#2e3436;fill-opacity:1;stroke:none;stroke-width:1.63321;stroke-linecap:square;stroke-linejoin:miter;stroke-miterlimit:4;stroke-dasharray:none;stroke-dashoffset:0;stroke-opacity:1;marker:none;marker-start:none;marker-mid:none;marker-end:none;paint-order:normal;enable-background:new" />
    </g>
    <g
       id="button8-path"
       inkscape:label="button8-path"
       transform="matrix(0.97966778,0,0,0.97966775,5.2423251e-5,-1.5391787)"
       style="stroke-width:1.02075">
      <rect
         y="159.45645"
         x="499"
         height="1"
         width="1"
         id="button8-leader"
         style="color:#000000;text-align:start;display:inline;overflow:visible;fill:#888a85;fill-opacity:1;stroke:none;stroke-width:1.02075;stroke-linecap:round;enable-background:new"
         inkscape:label="button8-leader" />
      <path
         sodipodi:nodetypes="ccc"
         inkscape:connector-curvature="0"
         id="path9869"
         d="m 500,159.956 -195.44731,4.5e-4 -49.38484,-49.38484"
         style="fill:none;stroke:#888a85;stroke-width:1.02075px;stroke-linecap:butt;stroke-linejoin:miter;stroke-opacity:1;enable-background:new" />
      <rect
         y="108.13274"
         x="252.31934"
         height="5.5999994"
         width="5.5999994"
         id="rect968-6"
         style="color:#000000;display:inline;overflow:visible;opacity:1;fill:#2e3436;fill-opacity:1;stroke:none;stroke-width:1.63321;stroke-linecap:square;stroke-linejoin:miter;stroke-miterlimit:4;stroke-dasharray:none;stroke-dashoffset:0;stroke-opacity:1;marker:none;marker-start:none;marker-mid:none;marker-end:none;paint-order:normal;enable-background:new" />
    </g>
    <g
       id="button0-path"
       inkscape:label="button0-path"
       transform="matrix(0.97966778,0,0,0.97966775,5.2423251e-5,-99.505954)"
       style="stroke-width:1.02075">
      <path
         sodipodi:nodetypes="cc"
         inkscape:connector-curvature="0"
         id="path9897"
         d="m 0,69.956 200.95461,4.67e-4"
         style="fill:none;stroke:#888a85;stroke-width:1.02075px;stroke-linecap:butt;stroke-linejoin:miter;stroke-opacity:1;enable-background:new" />
      <rect
         y="69.456467"
         x="0"
         height="1"
         width="1"
         id="button0-leader"
         style="color:#000000;text-align:end;display:inline;overflow:visible;fill:#888a85;fill-opacity:1;stroke:none;stroke-width:1.02075;stroke-linecap:round;enable-background:new"
         inkscape:label="button0-leader" />
      <rect
         y="67.156235"
         x="198.12222"
         height="5.5999994"
         width="5.5999994"
         id="rect968-5-5"
         style="color:#000000;display:inline;overflow:visible;opacity:1;fill:#2e3436;fill-opacity:1;stroke:none;stroke-width:1.63321;stroke-linecap:square;stroke-linejoin:miter;stroke-miterlimit:4;stroke-dasharray:none;stroke-dashoffset:0;stroke-opacity:1;marker:none;marker-start:none;marker-mid:none;marker-end:none;paint-order:normal;enable-background:new" />
    </g>
    <g
       id="button7-path"
       inkscape:label="button7-path"
       transform="matrix(0.97966778,0,0,0.97966775,5.2423251e-5,-99.505954)"
       style="stroke-width:1.02075">
      <path
         sodipodi:nodetypes="ccc"
         inkscape:connector-curvature="0"
         id="path9901"
         d="m 0,114.956 195.71202,4.7e-4 59.44656,59.44656"
         style="fill:none;stroke:#888a85;stroke-width:1.02075px;stroke-linecap:butt;stroke-linejoin:miter;stroke-opacity:1;enable-background:new" />
      <rect
         y="114.45647"
         x="0"
         height="1"
         width="1"
         id="button7-leader"
         style="color:#000000;text-align:end;display:inline;overflow:visible;fill:#888a85;fill-opacity:1;stroke:none;stroke-width:1.02075;stroke-linecap:round;enable-background:new"
         inkscape:label="button7-leader" />
      <rect
         y="171.52901"
         x="252.31934"
         height="5.5999994"
         width="5.5999994"
         id="rect968-7"
         style="color:#000000;display:inline;overflow:visible;opacity:1;fill:#2e3436;fill-opacity:1;stroke:none;stroke-width:1.63321;stroke-linecap:square;stroke-linejoin:miter;stroke-miterlimit:4;stroke-dasharray:none;stroke-dashoffset:0;stroke-opacity:1;marker:none;marker-start:none;marker-mid:none;marker-end:none;paint-order:normal;enable-background:new" />
    </g>
    <g
       id="button3-path"
       inkscape:label="button3-path"
       transform="matrix(0.97966778,0,0,0.97966775,5.2423251e-5,-99.505954)"
       style="stroke-width:1.02075">
      <path
         sodipodi:nodetypes="ccc"
         inkscape:connector-curvature="0"
         id="path9903"
         d="m 0,159.956 100.69141,4.5e-4 44.75174,44.75174"
         style="fill:none;stroke:#888a85;stroke-width:1.02075px;stroke-linecap:butt;stroke-linejoin:miter;stroke-opacity:1;enable-background:new" />
      <rect
         y="159.45645"
         x="0"
         height="1"
         width="1"
         id="button3-leader"
         style="color:#000000;text-align:end;display:inline;overflow:visible;fill:#888a85;fill-opacity:1;stroke:none;stroke-width:1.02075;stroke-linecap:round;enable-background:new"
         inkscape:label="button3-leader" />
      <rect
         y="201.145"
         x="142.06099"
         height="5.5999994"
         width="5.5999994"
         id="rect968"
         style="color:#000000;display:inline;overflow:visible;opacity:1;fill:#2e3436;fill-opacity:1;stroke:none;stroke-width:1.63321;stroke-linecap:square;stroke-linejoin:miter;stroke-miterlimit:4;stroke-dasharray:none;stroke-dashoffset:0;stroke-opacity:1;marker:none;marker-start:none;marker-mid:none;marker-end:none;paint-order:normal;enable-background:new" />
    </g>
    <g
       id="button4-path"
       inkscape:label="button4-path"
       transform="matrix(0.97966778,0,0,0.97966775,5.2423251e-5,-99.505954)"
       style="stroke-width:1.02075">
      <path
         sodipodi:nodetypes="ccc"
         inkscape:connector-curvature="0"
         id="path9905"
         d="m 0,204.956 82.163023,4.5e-4 69.613047,69.61305"
         style="fill:none;stroke:#888a85;stroke-width:1.02075px;stroke-linecap:butt;stroke-linejoin:miter;stroke-opacity:1;enable-background:new" />
      <rect
         y="204.45645"
         x="0"
         height="1"
         width="1"
         id="button4-leader"
         style="color:#000000;text-align:end;display:inline;overflow:visible;fill:#888a85;fill-opacity:1;stroke:none;stroke-width:1.02075;stroke-linecap:round;enable-background:new"
         inkscape:label="button4-leader" />
      <rect
         style="color:#000000;display:inline;overflow:visible;opacity:1;fill:#2e3436;fill-opacity:1;stroke:none;stroke-width:1.63321;stroke-linecap:square;stroke-linejoin:miter;stroke-miterlimit:4;stroke-dasharray:none;stroke-dashoffset:0;stroke-opacity:1;marker:none;marker-start:none;marker-mid:none;marker-end:none;paint-order:normal;enable-background:new"
         id="rect968-3"
         width="5.5999994"
         height="5.5999994"
         x="148.82346"
         y="271.36499" />
    </g>
  </g>
</svg>
