<?xml version="1.0" encoding="UTF-8" standalone="no"?>
<!-- Created with Inkscape (http://www.inkscape.org/) -->

<svg
   width="490"
   height="490"
   viewBox="0 0 129.64583 129.64583"
   version="1.1"
   id="svg8"
   sodipodi:docname="steelseries-kinzu-v2.svg"
   inkscape:version="1.2.1 (9c6d41e410, 2022-07-14)"
   xmlns:inkscape="http://www.inkscape.org/namespaces/inkscape"
   xmlns:sodipodi="http://sodipodi.sourceforge.net/DTD/sodipodi-0.dtd"
   xmlns="http://www.w3.org/2000/svg"
   xmlns:svg="http://www.w3.org/2000/svg"
   xmlns:rdf="http://www.w3.org/1999/02/22-rdf-syntax-ns#"
   xmlns:cc="http://creativecommons.org/ns#"
   xmlns:dc="http://purl.org/dc/elements/1.1/">
  <defs
     id="defs2" />
  <sodipodi:namedview
     id="base"
     pagecolor="#ffffff"
     bordercolor="#666666"
     borderopacity="1.0"
     inkscape:pageopacity="0.0"
     inkscape:pageshadow="2"
     inkscape:zoom="128"
     inkscape:cx="1.394717"
     inkscape:cy="334.40624"
     inkscape:document-units="px"
     inkscape:current-layer="Buttons"
     inkscape:document-rotation="0"
     showgrid="false"
     showguides="false"
     inkscape:window-width="1920"
     inkscape:window-height="1163"
     inkscape:window-x="1920"
     inkscape:window-y="0"
     inkscape:window-maximized="1"
     showborder="true"
     inkscape:guide-bbox="true"
     units="px"
     inkscape:snap-global="false"
     inkscape:measure-start="0,0"
     inkscape:measure-end="0,0"
     inkscape:showpageshadow="0"
     inkscape:pagecheckerboard="1"
     inkscape:deskcolor="#d1d1d1">
    <inkscape:grid
       type="xygrid"
       id="grid78" />
    <sodipodi:guide
       position="58.722772,112.40709"
       orientation="0,1"
       id="guide79"
       inkscape:locked="false" />
    <sodipodi:guide
       position="39.611923,100.54373"
       orientation="0,1"
       id="guide81"
       inkscape:locked="false" />
    <sodipodi:guide
       position="51.756014,88.614617"
       orientation="0,1"
       id="guide83"
       inkscape:locked="false" />
    <sodipodi:guide
       position="57.778386,76.729167"
       orientation="0,1"
       id="guide85"
       inkscape:locked="false" />
    <sodipodi:guide
       position="45.047078,64.795712"
       orientation="0,1"
       inkscape:locked="false"
       id="guide87" />
    <sodipodi:guide
       position="57.646696,52.899321"
       orientation="0,1"
       id="guide89"
       inkscape:locked="false" />
    <sodipodi:guide
       position="64.732676,142.09384"
       orientation="1,0"
       id="guide913"
       inkscape:locked="false" />
    <sodipodi:guide
       position="-45.462545,31.805073"
       orientation="0,1"
       inkscape:locked="false"
       id="guide944" />
  </sodipodi:namedview>
  <metadata
     id="metadata5">
    <rdf:RDF>
      <cc:Work
         rdf:about="">
        <dc:format>image/svg+xml</dc:format>
        <dc:type
           rdf:resource="http://purl.org/dc/dcmitype/StillImage" />
      </cc:Work>
    </rdf:RDF>
  </metadata>
  <g
     inkscape:groupmode="layer"
     id="Device"
     inkscape:label="Device"
     style="display:inline;opacity:1"
     transform="translate(0,-167.35416)">
    <path
       style="fill:#eeeeec;fill-opacity:1;fill-rule:evenodd;stroke:#babdb6;stroke-width:0.79375;stroke-linecap:butt;stroke-linejoin:miter;stroke-miterlimit:4;stroke-dasharray:none;stroke-opacity:1"
       d="m 61.052601,173.57187 c -6.81302,0.0662 -11.972394,1.52136 -16.073435,3.37344 -12.687653,6.48206 -10.465086,25.22637 -10.451041,37.10781 -0.708621,15.07409 -1.997423,30.34082 -3.175,46.43437 -0.0248,0.94258 -10e-7,1.65364 0.198437,2.57969 2.882508,17.64417 16.963807,28.99482 34.268541,28.89327 19.398867,-0.11384 28.676479,-12.45776 32.141733,-28.89709 0.198438,-0.92605 0.223237,-1.63711 0.198437,-2.57969 -0.735005,-15.36206 -2.960446,-32.79954 -3.175,-46.43437 -0.456258,-13.15119 2.39179,-31.05224 -10.451041,-37.10781 -4.101041,-1.85208 -9.260416,-3.30724 -16.073436,-3.37344 z"
       id="path926"
       inkscape:connector-curvature="0"
       sodipodi:nodetypes="cccccscccccc" />
    <path
       inkscape:label="LOGO LED"
       transform="rotate(-90)"
       sodipodi:open="true"
       d="m -278.12103,68.913199 a 4.5479846,4.5479846 0 0 1 -6.43183,0 4.5479846,4.5479846 0 0 1 0,-6.431821 4.5479846,4.5479846 0 0 1 6.43183,0"
       sodipodi:arc-type="arc"
       sodipodi:end="5.4977871"
       sodipodi:start="0.78539816"
       sodipodi:ry="4.5479846"
       sodipodi:rx="4.5479846"
       sodipodi:cy="65.697289"
       sodipodi:cx="-281.33694"
       sodipodi:type="arc"
       id="led0"
       style="color:#000000;display:inline;overflow:visible;vector-effect:none;fill:none;fill-opacity:1;stroke:#babdb6;stroke-width:2.28121;stroke-linecap:square;stroke-linejoin:bevel;stroke-miterlimit:4;stroke-dasharray:none;stroke-opacity:1" />
    <path
       style="fill:#d9dad7;fill-opacity:1;stroke:#babdb6;stroke-width:0.264583;stroke-linecap:butt;stroke-linejoin:miter;stroke-miterlimit:4;stroke-dasharray:none;stroke-opacity:1"
       d="m 67.539008,222.23013 c 4.019789,-4.18327 3.745175,-20.73839 3.832344,-25.37239 0.04814,-3.0267 0.02798,-6.06163 -0.219194,-9.0786 -0.12373,-1.51024 -0.256628,-3.03361 -0.631425,-4.50182 -0.572228,-2.24162 -1.647818,-4.33612 -2.198291,-6.58318 -0.216184,-0.88248 0.0049,-1.99996 -0.01156,-2.94772 -1.271665,3e-5 -4.766155,-0.0195 -7.137319,0.009 -0.0538,0.84704 0.04496,2.27487 -0.171222,3.15735 -0.550473,2.24706 -1.626063,4.34156 -2.198291,6.58318 -0.374797,1.46821 -0.507695,2.99158 -0.631425,4.50182 -0.247174,3.01697 -0.267336,6.0519 -0.219194,9.0786 0.262425,3.82843 0.206751,21.00831 4.440382,25.24194 0.644947,0.64495 1.318213,0.92775 2.516695,0.91083 1.06058,-0.015 1.903334,-0.24435 2.6285,-0.99901 z"
       id="path67"
       inkscape:connector-curvature="0"
       sodipodi:nodetypes="scassccssacsss" />
    <rect
       style="display:inline;opacity:1;fill:#ffffff;fill-opacity:1;stroke:#c0bfbc;stroke-width:0.264583;stroke-miterlimit:4;stroke-dasharray:none;stroke-opacity:1"
       id="button2"
       width="7.9138031"
       height="17.06078"
       x="60.725685"
       y="184.69237"
       ry="3.9569016"
       inkscape:label="#rect4615"
       rx="3.9569016" />
    <path
       style="font-variation-settings:normal;opacity:1;vector-effect:none;fill:#ffffff;fill-opacity:1;stroke:#c0bfbc;stroke-width:0.264583;stroke-linecap:butt;stroke-linejoin:miter;stroke-miterlimit:4;stroke-dasharray:none;stroke-dashoffset:0;stroke-opacity:1;-inkscape-stroke:none;stop-color:#000000;stop-opacity:1"
       d="m 63.166987,218.26322 c 0.413327,0.85333 0.912893,2.12412 1.659236,2.12129 0.787332,-0.0468 1.235565,-1.13423 1.730571,-2.10475 0.963186,-2.27407 1.866349,-4.95232 2.011204,-7.01582 -0.04511,-0.75357 -0.133324,-0.96262 -0.841899,-1.16931 H 62.16021 c -0.833415,0.11951 -1.319565,0.66897 -1.309621,1.44994 0.120828,1.81242 1.213354,4.50867 2.316398,6.71865 z"
       id="button3"
       inkscape:connector-curvature="0"
       sodipodi:nodetypes="cccccccc"
       inkscape:label="#path914" />
    <path
       style="fill:#d9dad7;fill-opacity:1;stroke:none;stroke-width:0.560917;stroke-linecap:butt;stroke-linejoin:miter;stroke-miterlimit:4;stroke-dasharray:none;stroke-opacity:1"
       d="m 94.92543,220.25429 c 0,0 -2.993099,22.36809 -2.993099,33.61862 0,1.85752 0.06615,2.789 0.06615,4.72943 0,2.7249 -0.02687,3.50461 0.644922,5.02708 0.260631,0.59067 1.072687,1.52327 2.133203,1.88516 1.196295,0.23151 2.146396,-0.87485 2.844271,-2.0836 0.05512,-1.02526 0.110243,-2.05052 0.165364,-3.07578 z"
       id="path927"
       inkscape:connector-curvature="0"
       sodipodi:nodetypes="cssscccc" />
    <path
       style="fill:#eeeeec;fill-opacity:1;stroke:none;stroke-width:0.26458332px;stroke-linecap:butt;stroke-linejoin:miter;stroke-opacity:1"
       d="m 74.015046,179.00533 c -0.3698,5.3513 -0.7396,10.70261 -1.1094,16.05391 5.64679,2.60869 11.29357,5.21739 16.94036,7.82608 0.15918,-3.6955 0.31835,-7.391 0.47753,-11.0865 -1.11745,-3.10672 -2.2349,-6.21344 -3.35235,-9.32016 -4.31871,-1.15778 -8.63743,-2.31555 -12.95614,-3.47333 z"
       id="button1"
       inkscape:connector-curvature="0"
       inkscape:label="#path4486"
       sodipodi:nodetypes="cccccc" />
    <path
       style="fill:#eeeeec;fill-opacity:1;stroke:none;stroke-width:0.26458332px;stroke-linecap:butt;stroke-linejoin:miter;stroke-opacity:1"
       d="m 43.711955,183.42729 c -1.214,2.83542 -2.428,5.67083 -3.642,8.50625 0.367,3.65063 0.734,7.30126 1.101,10.95189 5.40711,-2.5672 10.81422,-5.13439 16.22133,-7.70159 -0.30702,-5.36162 -0.61405,-10.72324 -0.92107,-16.08486 -4.25309,1.44277 -8.50617,2.88554 -12.75926,4.32831 z"
       id="button0"
       inkscape:connector-curvature="0"
       inkscape:label="#path3664"
       sodipodi:nodetypes="cccccc" />
    <path
       style="display:inline;opacity:1;fill:#d9dad7;fill-opacity:1;stroke:none;stroke-width:0.560917;stroke-linecap:butt;stroke-linejoin:miter;stroke-miterlimit:4;stroke-dasharray:none;stroke-opacity:1"
       d="m 34.694676,219.97553 c 0,0 2.9931,22.36809 2.9931,33.61862 0,1.85752 -0.0661,2.789 -0.0661,4.72943 0,2.7249 0.0269,3.50461 -0.64492,5.02708 -0.26064,0.59067 -1.07269,1.52327 -2.13321,1.88516 -1.19629,0.23151 -2.146392,-0.87485 -2.844272,-2.0836 -0.0551,-1.02526 -0.11024,-2.05052 -0.16536,-3.07578 z"
       id="path927-7"
       inkscape:connector-curvature="0"
       sodipodi:nodetypes="cssscccc" />
  </g>
  <g
     inkscape:groupmode="layer"
     id="Buttons"
     inkscape:label="Buttons"
     transform="translate(0,-2.6458338)"
     style="display:inline">
    <g
       transform="matrix(-0.29294531,0,0,0.26458333,70.19679,-40.717196)"
       style="display:inline"
       id="button0-path"
       inkscape:label="#g156">
      <path
         sodipodi:nodetypes="cc"
         style="color:#000000;overflow:visible;opacity:1;vector-effect:none;fill:none;fill-opacity:1;stroke:#888a85;stroke-width:1;stroke-linecap:square;stroke-linejoin:miter;stroke-miterlimit:4;stroke-dasharray:none;stroke-dashoffset:0;stroke-opacity:1;marker:none;marker-start:none;marker-mid:none;marker-end:none;paint-order:normal"
         d="m 81.663449,250.50576 157.960771,0.0352"
         id="path966"
         inkscape:connector-curvature="0" />
      <rect
         style="color:#000000;overflow:visible;opacity:1;vector-effect:none;fill:#2e3436;fill-opacity:1;stroke:none;stroke-width:2;stroke-linecap:square;stroke-linejoin:miter;stroke-miterlimit:4;stroke-dasharray:none;stroke-dashoffset:0;stroke-opacity:1;marker:none;marker-start:none;marker-mid:none;marker-end:none;paint-order:normal"
         id="rect976"
         width="6.999999"
         height="6.999999"
         x="79.083046"
         y="247.00577" />
      <rect
         y="250.00575"
         x="238.62422"
         height="1"
         width="1"
         id="button0-leader"
         style="color:#000000;text-align:end;overflow:visible;vector-effect:none;fill:#888a85;fill-opacity:1;stroke:none;stroke-linecap:round"
         inkscape:label="#rect875" />
    </g>
    <g
       transform="matrix(0.26458333,0,0,0.26458333,40.502648,-19.549003)"
       style="display:inline"
       id="button1-path"
       inkscape:label="#g146">
      <path
         style="color:#000000;overflow:visible;opacity:1;vector-effect:none;fill:none;fill-opacity:1;stroke:#888a85;stroke-width:0.99999994;stroke-linecap:square;stroke-linejoin:miter;stroke-miterlimit:4;stroke-dasharray:none;stroke-dashoffset:0;stroke-opacity:1;marker:none;marker-start:none;marker-mid:none;marker-end:none;paint-order:normal"
         d="m 336.91912,170.14213 -183.57514,0.36405"
         id="path51"
         inkscape:connector-curvature="0"
         sodipodi:nodetypes="cc" />
      <rect
         style="color:#000000;overflow:visible;opacity:1;vector-effect:none;fill:#2e3436;fill-opacity:1;stroke:none;stroke-width:2;stroke-linecap:square;stroke-linejoin:miter;stroke-miterlimit:4;stroke-dasharray:none;stroke-dashoffset:0;stroke-opacity:1;marker:none;marker-start:none;marker-mid:none;marker-end:none;paint-order:normal"
         id="rect53"
         width="6.999999"
         height="6.999999"
         x="149"
         y="167" />
      <rect
         y="169.75269"
         x="336.91913"
         height="1"
         width="1"
         id="button1-leader"
         style="color:#000000;text-align:start;overflow:visible;vector-effect:none;fill:#888a85;fill-opacity:1;stroke:none;stroke-linecap:round"
         inkscape:label="#rect871" />
    </g>
    <g
       transform="matrix(-0.2847136,0,0,0.26458333,87.493539,-7.2646706)"
       style="display:inline;opacity:1"
       id="button2-path"
       inkscape:label="#g151">
      <path
         sodipodi:nodetypes="ccc"
         inkscape:connector-curvature="0"
         id="path964-6"
         d="m 79.210952,122.6933 62.691188,68.76371 165.40155,1e-5"
         style="color:#000000;overflow:visible;opacity:1;vector-effect:none;fill:none;fill-opacity:1;stroke:#888a85;stroke-width:0.99999994;stroke-linecap:square;stroke-linejoin:miter;stroke-miterlimit:4;stroke-dasharray:none;stroke-dashoffset:0;stroke-opacity:1;marker:none;marker-start:none;marker-mid:none;marker-end:none;paint-order:normal" />
      <rect
         inkscape:label="#rect875"
         style="color:#000000;text-align:end;overflow:visible;vector-effect:none;fill:#888a85;fill-opacity:1;stroke:none;stroke-linecap:round"
         id="button2-leader"
         width="1"
         height="1"
         x="306.40533"
         y="190.93378" />
      <rect
         y="117.94263"
         x="76.303352"
         height="6.999999"
         width="6.999999"
         id="rect974-5"
         style="color:#000000;overflow:visible;opacity:1;vector-effect:none;fill:#2e3436;fill-opacity:1;stroke:none;stroke-width:2;stroke-linecap:square;stroke-linejoin:miter;stroke-miterlimit:4;stroke-dasharray:none;stroke-dashoffset:0;stroke-opacity:1;marker:none;marker-start:none;marker-mid:none;marker-end:none;paint-order:normal" />
    </g>
    <g
       transform="matrix(0.26458333,0,0,0.26458333,13.746167,-3.2430852)"
       style="display:inline"
       id="button3-path"
       inkscape:label="#g146">
      <path
         style="color:#000000;overflow:visible;opacity:1;vector-effect:none;fill:none;fill-opacity:1;stroke:#888a85;stroke-width:1;stroke-linecap:square;stroke-linejoin:miter;stroke-miterlimit:4;stroke-dasharray:none;stroke-dashoffset:0;stroke-opacity:1;marker:none;marker-start:none;marker-mid:none;marker-end:none;paint-order:normal"
         d="M 438.04598,178.25732 H 203.75439 l -10.41041,14.16365"
         id="path51-1-9-6-0"
         inkscape:connector-curvature="0"
         sodipodi:nodetypes="ccc" />
      <rect
         style="color:#000000;overflow:visible;opacity:1;vector-effect:none;fill:#2e3436;fill-opacity:1;stroke:none;stroke-width:2;stroke-linecap:square;stroke-linejoin:miter;stroke-miterlimit:4;stroke-dasharray:none;stroke-dashoffset:0;stroke-opacity:1;marker:none;marker-start:none;marker-mid:none;marker-end:none;paint-order:normal"
         id="rect53-2-3-2-2"
         width="6.999999"
         height="6.999999"
         x="189"
         y="188.66757" />
      <rect
         y="177.79317"
         x="438.04599"
         height="1"
         width="1"
         id="button3-leader"
         style="color:#000000;text-align:start;overflow:visible;vector-effect:none;fill:#888a85;fill-opacity:1;stroke:none;stroke-linecap:round"
         inkscape:label="#rect871" />
    </g>
  </g>
  <g
     inkscape:groupmode="layer"
     id="LEDs"
     inkscape:label="LEDs"
     transform="translate(0,-2.6458338)"
     style="display:none" />
</svg>
