<?xml version="1.0" encoding="UTF-8"?>
<svg height="16px" viewBox="0 0 16 16" width="16px" xmlns="http://www.w3.org/2000/svg" xmlns:xlink="http://www.w3.org/1999/xlink">
    <path d="m 5 1 c -1.109375 0 -2 0.890625 -2 2 v 10 c 0 1.109375 0.890625 2 2 2 h 6 c 1.109375 0 2 -0.890625 2 -2 v -10 c 0 -1.109375 -0.890625 -2 -2 -2 z m 0 1 h 6 c 0.546875 0 1 0.453125 1 1 v 5 h -1 v 1 h -1 v -2 h 1 v -4 h -6 v 5 h -1 v -5 c 0 -0.546875 0.453125 -1 1 -1 z m 1 5 h 1 v 2 h -1 z m 2 0 h 1 v 2 h -1 z m 0 0" fill="#3d3846"/>
</svg>
